# File created by Blade
# Date/Time:  Wed Jan 21 18:02:19 2015
# Frame Rate: 120.000 fps
#------------------------------------------------------
:FULLY-SPECIFIED
:DEGREES
1027
root 9.497401 36.092731 -22.256983 -194.705744 -2.502493 -166.816920
Spine 14.531411 8.978275 24.006003
Head -0.526769 -17.059464 -3.353193
LeftShoulder -7.082485 -18.367037 -4.379780
LeftArm -30.010043 -2.188317 -71.091360
LeftForeArm -9.684485 -0.000000 -2.937935
LeftHand -5.523130 -0.000000 2.876494
LeftHandThumb1 -26.253704 0.000000 33.147579
RightShoulder -7.311367 -17.222371 3.637663
RightArm -1.018972 -1.207517 58.242284
RightForeArm -17.545654 -0.000000 11.727505
RightHand -1.047583 -0.000000 6.003868
RightHandThumb1 -24.326973 -0.000000 -32.862282
LeftUpLeg 11.454514 20.368272 5.897087
LeftLeg 8.048289 -0.000000 -0.000000
LeftFoot -24.901659 26.615861 -8.897104
LeftToeBase 21.355798 -0.000000 -0.000000
RightUpLeg -21.299018 -23.768235 -16.762150
RightLeg 8.274342 -0.000000 -0.000000
RightFoot -21.863837 -35.352745 10.538409
RightToeBase -3.740613 -0.000000 0.000000
1028
root 9.543555 36.069432 -22.309412 -194.190826 -2.052870 -167.291108
Spine 13.878541 9.458985 23.080691
Head -0.047072 -16.827641 -3.047139
LeftShoulder -7.188569 -18.403390 -4.061247
LeftArm -29.777846 -2.150720 -70.693547
LeftForeArm -9.678440 -0.000000 -2.820627
LeftHand -5.435001 -0.000000 2.871052
LeftHandThumb1 -26.253704 0.000000 33.147579
RightShoulder -7.533498 -17.491843 3.968893
RightArm -1.553266 -1.285566 59.295745
RightForeArm -17.318091 -0.000000 11.620404
RightHand -1.056896 -0.000000 5.626111
RightHandThumb1 -24.326973 -0.000000 -32.862282
LeftUpLeg 11.264972 20.612026 5.401690
LeftLeg 7.723305 -0.000000 -0.000000
LeftFoot -24.879713 26.918243 -8.977649
LeftToeBase 21.252009 -0.000000 -0.000000
RightUpLeg -20.424228 -23.082472 -16.234452
RightLeg 8.635871 -0.000000 -0.000000
RightFoot -21.406527 -35.252192 9.949779
RightToeBase -3.325093 -0.000000 0.000000
1029
root 9.602300 36.047737 -22.342576 -193.506316 -1.559681 -167.676871
Spine 13.032581 9.974582 22.221305
Head 0.490799 -16.573129 -2.781050
LeftShoulder -7.303172 -18.440891 -3.791112
LeftArm -29.535285 -2.065471 -70.280404
LeftForeArm -9.723589 -0.000000 -2.683501
LeftHand -5.418120 -0.000000 2.939037
LeftHandThumb1 -26.253704 0.000000 33.147579
RightShoulder -7.802455 -17.754075 4.334287
RightArm -2.104687 -1.584311 60.269747
RightForeArm -16.915588 -0.000000 11.695857
RightHand -1.427207 -0.000000 5.353508
RightHandThumb1 -24.326973 -0.000000 -32.862282
LeftUpLeg 10.789618 20.930229 4.948203
LeftLeg 7.534438 -0.000000 -0.000000
LeftFoot -24.912972 27.210719 -9.030309
LeftToeBase 21.242534 -0.000000 -0.000000
RightUpLeg -19.791668 -22.350487 -15.510259
RightLeg 9.003096 -0.000000 -0.000000
RightFoot -21.028472 -35.149004 9.863940
RightToeBase -3.564016 -0.000000 0.000000
1030
root 9.659083 36.030942 -22.401251 -193.148420 -1.144448 -168.056519
Spine 12.514136 10.231976 21.408774
Head 0.909225 -16.290733 -2.551465
LeftShoulder -7.433723 -18.567209 -3.516564
LeftArm -29.309114 -1.893790 -69.907424
LeftForeArm -9.905925 -0.000000 -2.522068
LeftHand -5.367280 -0.000000 2.912263
LeftHandThumb1 -26.253704 0.000000 33.147579
RightShoulder -8.005583 -17.952286 4.570900
RightArm -2.564324 -1.335190 61.324245
RightForeArm -17.533769 -0.000000 11.536269
RightHand -1.394710 -0.000000 5.296611
RightHandThumb1 -24.326973 -0.000000 -32.862282
LeftUpLeg 10.740019 21.142609 4.611052
LeftLeg 7.232301 -0.000000 -0.000000
LeftFoot -24.902812 27.497176 -9.102821
LeftToeBase 21.184249 -0.000000 -0.000000
RightUpLeg -18.730701 -21.787367 -14.911630
RightLeg 9.253532 -0.000000 -0.000000
RightFoot -20.639154 -35.062989 9.539409
RightToeBase -3.687647 -0.000000 0.000000
1031
root 9.717846 36.016200 -22.460770 -192.733254 -0.730958 -168.394066
Spine 11.869536 10.487302 20.632174
Head 1.417601 -16.053074 -2.389700
LeftShoulder -7.597038 -18.520388 -3.276797
LeftArm -28.870222 -1.701787 -69.547087
LeftForeArm -10.094434 -0.000000 -2.452940
LeftHand -5.280695 0.000000 2.900710
LeftHandThumb1 -26.253704 0.000000 33.147579
RightShoulder -8.205612 -18.191056 4.850960
RightArm -3.056298 -1.223544 62.306820
RightForeArm -17.750166 -0.000000 11.423337
RightHand -1.399939 -0.000000 5.525663
RightHandThumb1 -24.326973 -0.000000 -32.862282
LeftUpLeg 10.610957 21.352551 4.294395
LeftLeg 6.961222 -0.000000 -0.000000
LeftFoot -24.903486 27.743865 -9.176378
LeftToeBase 21.158509 -0.000000 -0.000000
RightUpLeg -17.732676 -21.306520 -14.228088
RightLeg 9.446472 -0.000000 -0.000000
RightFoot -20.400134 -34.969778 9.369253
RightToeBase -3.736042 -0.000000 0.000000
